<svg xmlns="http://www.w3.org/2000/svg" version="1.0" width="180.000000pt" height="180.000000pt" viewBox="0 0 180.000000 180.000000" preserveAspectRatio="xMidYMid meet">
<metadata>
Created by potrace 1.16, written by Peter Selinger 2001-2019
</metadata>
<g transform="translate(0.000000,180.000000) scale(0.100000,-0.100000)" fill="#000000" stroke="none">
<path d="M0 900 l0 -900 900 0 900 0 0 900 0 900 -900 0 -900 0 0 -900z m1415 376 c15 -21 20 -42 20 -94 -1 -75 -21 -128 -85 -228 -22 -33 -57 -109 -79 -170 -35 -99 -41 -109 -65 -112 -22 -3 -28 2 -37 27 -6 17 -13 31 -15 31 -3 0 -46 -30 -97 -66 -94 -67 -203 -128 -299 -164 -86 -32 -80 -22 7 13 256 103 497 305 609 508 67 123 68 220 3 283 -25 23 -26 27 -7 15 13 -9 33 -28 45 -43z m-658 -221 c90 -38 135 -147 101 -246 -33 -99 -86 -129 -228 -129 l-100 0 0 195 0 195 95 0 c63 0 108 -5 132 -15z m225 -90 c18 -58 35 -105 38 -105 4 0 20 43 35 95 42 138 62 147 97 42 l17 -52 -95 -93 c-53 -51 -101 -91 -106 -90 -6 2 -32 62 -58 133 -71 195 -70 175 -11 175 l51 0 32 -105z"/>
<path d="M627 976 c-1 -6 -3 -56 -2 -111 l0 -100 35 -3 c97 -7 149 107 87 193 -16 21 -114 38 -120 21z"/>
</g>
</svg>
